<?xml version="1.0" encoding="UTF-8"?> <svg xmlns="http://www.w3.org/2000/svg" width="300" height="283" viewBox="0 0 300 283" fill="none"><rect x="0.5" y="0.5" width="299" height="281.983" rx="23.5" fill="white"></rect><path d="M189.521 128.457C192.901 132.965 194.262 137.311 193.696 141.749L193.707 141.751C198.431 142.088 204.095 144.283 206.169 146.686L208.091 148.899L207.466 149.626C206.326 150.961 205.941 151.386 205.786 151.54C199.449 158.493 191.308 156.369 187.555 155.283C171.669 176.187 147.718 183.607 120.029 176.188C107.263 172.767 98.5409 166.173 94.1066 156.598C88.274 143.998 91.8547 130.592 93.7235 126.492L94.1096 125.643L132.335 135.885L170.56 146.128C174.532 147.284 177.84 146.943 179.585 146.515C178.695 143.753 178.931 140.925 179.174 139.384C179.97 135.019 182.223 130.838 185.187 128.19L187.504 126.138L189.521 128.457Z" fill="#1D63ED"></path><path d="M153.934 100.38L165.559 103.495L162.691 114.2L151.066 111.085L153.934 100.38Z" fill="#1D63ED"></path><path d="M150.492 113.226L162.117 116.341L159.249 127.046L147.624 123.931L150.492 113.226Z" fill="#1D63ED"></path><path d="M136.754 109.545L148.379 112.659L145.51 123.364L133.885 120.249L136.754 109.545Z" fill="#1D63ED"></path><path d="M123.015 105.863L134.64 108.978L131.772 119.683L120.147 116.568L123.015 105.863Z" fill="#1D63ED"></path><path d="M105.834 115.028L117.459 118.143L114.591 128.848L102.966 125.733L105.834 115.028Z" fill="#1D63ED"></path><path d="M119.573 118.709L131.198 121.824L128.329 132.529L116.704 129.414L119.573 118.709Z" fill="#1D63ED"></path><path d="M133.311 122.39L144.936 125.505L142.068 136.21L130.443 133.095L133.311 122.39Z" fill="#1D63ED"></path><path d="M147.05 126.072L158.675 129.187L155.807 139.892L144.182 136.777L147.05 126.072Z" fill="#1D63ED"></path><path d="M160.789 129.753L172.414 132.868L169.545 143.573L157.92 140.458L160.789 129.753Z" fill="#1D63ED"></path><rect x="0.5" y="0.5" width="299" height="281.983" rx="23.5" stroke="#E1E2E6"></rect></svg> 